<svg xmlns="http://www.w3.org/2000/svg" viewBox="20 20 592 280" width="592" height="280">
  <title>Seabed Classification logo (light background)</title>
  <defs>
    <clipPath id="emb"><circle cx="160" cy="160" r="120"/></clipPath>
  </defs>

  <circle cx="160" cy="160" r="120" fill="#0d2734"/>

  <g clip-path="url(#emb)">
    <polygon points="160,72 95,236 225,236" fill="#36c6cf" opacity="0.10"/>
    <line x1="160" y1="72" x2="95" y2="236" stroke="#36c6cf" stroke-width="1.4" opacity="0.45"/>
    <line x1="160" y1="72" x2="225" y2="236" stroke="#36c6cf" stroke-width="1.4" opacity="0.45"/>
    <line x1="160" y1="72" x2="160" y2="236" stroke="#36c6cf" stroke-width="1.2" opacity="0.22"/>

    <path d="M140 72 Q160 89 180 72" fill="none" stroke="#36c6cf" stroke-width="2" stroke-linecap="round" opacity="0.55"/>
    <path d="M126 72 Q160 101 194 72" fill="none" stroke="#36c6cf" stroke-width="2" stroke-linecap="round" opacity="0.38"/>
    <path d="M112 72 Q160 113 208 72" fill="none" stroke="#36c6cf" stroke-width="2" stroke-linecap="round" opacity="0.26"/>

    <path d="M40 235 L55 232 L72 224 L85 237 L103 219 L120 232 L130 223 L150 234 L170 226 L195 235 L225 231 L250 236 L265 233 L280 236 L280 290 L40 290 Z" fill="#0a2230"/>

    <path d="M55 232 L72 224 L85 237 L103 219 L120 232 L130 223" fill="none" stroke="#d64545" stroke-width="7" stroke-linecap="round" stroke-linejoin="round"/>
    <path d="M130 223 L150 234 L170 226 L195 235" fill="none" stroke="#f0a07a" stroke-width="7" stroke-linecap="round" stroke-linejoin="round"/>
    <path d="M195 235 L225 231 L250 236 L265 233" fill="none" stroke="#4a78c4" stroke-width="7" stroke-linecap="round" stroke-linejoin="round"/>
  </g>

  <line x1="160" y1="60" x2="160" y2="72" stroke="#f6c75e" stroke-width="2.4" stroke-linecap="round"/>
  <circle cx="160" cy="72" r="4.4" fill="#f6c75e"/>

  <circle cx="160" cy="160" r="120" fill="none" stroke="#36c6cf" stroke-width="3.2"/>
  <circle cx="160" cy="160" r="112" fill="none" stroke="#1d4a5c" stroke-width="1.2"/>

  <text x="330" y="163" font-family="Inter, 'Segoe UI', Arial, sans-serif" font-size="62" font-weight="800" letter-spacing="1" fill="#0d2734">SEABED</text>
  <text x="332" y="203" font-family="Inter, 'Segoe UI', Arial, sans-serif" font-size="21" font-weight="600" letter-spacing="6.2" fill="#1a8f97">CLASSIFICATION</text>
</svg>
